HIERARCHY
ROOT Hips
{
  OFFSET 50.6608 100.647 5.62796
  CHANNELS 6 Xposition Yposition Zposition Zrotation Xrotation Yrotation
  JOINT spine
  {
    OFFSET 0 8.81704 0.507024
    CHANNELS 3 Zrotation Xrotation Yrotation
    JOINT spine1
    {
      OFFSET 0 10.7766 0
      CHANNELS 3 Zrotation Xrotation Yrotation
      JOINT spine2
      {
        OFFSET 0 10.3259 0
        CHANNELS 3 Zrotation Xrotation Yrotation
        JOINT Neck
        {
          OFFSET 0 26.511 1.26395
          CHANNELS 3 Zrotation Xrotation Yrotation
          JOINT Head
          {
            OFFSET 0 8.00966 0
            CHANNELS 3 Zrotation Xrotation Yrotation
            End Site
            {
              OFFSET 0 19.3879 -6.39386
            }
          }
        }
        JOINT RightShoulder
        {
          OFFSET -4.34795 11.1512 -0.605422
          CHANNELS 3 Zrotation Xrotation Yrotation
          JOINT RightArm
          {
            OFFSET 0 14.6258 0
            CHANNELS 3 Zrotation Xrotation Yrotation
            JOINT RightArmRoll
            {
              OFFSET 0 7.3834 0
              CHANNELS 3 Zrotation Xrotation Yrotation
              JOINT RightForeArm
              {
                OFFSET 0 21.5052 0
                CHANNELS 3 Zrotation Xrotation Yrotation
                JOINT RightForeArmRoll
                {
                  OFFSET 0 8.28532 0
                  CHANNELS 3 Zrotation Xrotation Yrotation
                  JOINT RightHand
                  {
                    OFFSET 0 16.6268 0
                    CHANNELS 3 Zrotation Xrotation Yrotation
                    End Site
                    {
                      OFFSET 0 0 0
                    }
                  }
                }
              }
            }
          }
        }
        JOINT LeftShoulder
        {
          OFFSET 4.34795 11.1512 -0.605422
          CHANNELS 3 Zrotation Xrotation Yrotation
          JOINT LeftArm
          {
            OFFSET 0 14.6258 0
            CHANNELS 3 Zrotation Xrotation Yrotation
            JOINT LeftArmRoll
            {
              OFFSET 0 7.3834 0
              CHANNELS 3 Zrotation Xrotation Yrotation
              JOINT LeftForeArm
              {
                OFFSET 0 21.5052 0
                CHANNELS 3 Zrotation Xrotation Yrotation
                JOINT LeftForeArmRoll
                {
                  OFFSET 0 8.28532 0
                  CHANNELS 3 Zrotation Xrotation Yrotation
                  JOINT LeftHand
                  {
                    OFFSET 0 16.6268 0
                    CHANNELS 3 Zrotation Xrotation Yrotation
                    End Site
                    {
                      OFFSET 0 0 0
                    }
                  }
                }
              }
            }
          }
        }
      }
    }
  }
  JOINT RightUpLeg
  {
    OFFSET -7.8151 -1.43309 -1.20217
    CHANNELS 3 Zrotation Xrotation Yrotation
    JOINT RightUpLegRoll
    {
      OFFSET 0 19.4959 0
      CHANNELS 3 Zrotation Xrotation Yrotation
      JOINT RightLeg
      {
        OFFSET 0 -24.1427 0
        CHANNELS 3 Zrotation Xrotation Yrotation
        JOINT RightLegRoll
        {
          OFFSET 0 24.2217 0
          CHANNELS 3 Zrotation Xrotation Yrotation
          JOINT RightFoot
          {
            OFFSET 0 20.1605 0
            CHANNELS 3 Zrotation Xrotation Yrotation
            JOINT RightToeBase
            {
              OFFSET 0 16.8532 0
              CHANNELS 3 Zrotation Xrotation Yrotation
              End Site
              {
                OFFSET 0.00714343 8.16187 -0.94078
              }
            }
          }
        }
      }
    }
  }
  JOINT LeftUpLeg
  {
    OFFSET 7.8151 -1.43309 -1.20217
    CHANNELS 3 Zrotation Xrotation Yrotation
    JOINT LeftUpLegRoll
    {
      OFFSET 0 19.496 0
      CHANNELS 3 Zrotation Xrotation Yrotation
      JOINT LeftLeg
      {
        OFFSET 0 24.1426 0
        CHANNELS 3 Zrotation Xrotation Yrotation
        JOINT LeftLegRoll
        {
          OFFSET 0 24.4456 0
          CHANNELS 3 Zrotation Xrotation Yrotation
          JOINT LeftFoot
          {
            OFFSET 0 19.9366 0
            CHANNELS 3 Zrotation Xrotation Yrotation
            JOINT LeftToeBase
            {
              OFFSET 0 16.8532 0
              CHANNELS 3 Zrotation Xrotation Yrotation
              End Site
              {
                OFFSET -0.0320138 8.16187 -0.94078
              }
            }
          }
        }
      }
    }
  }
}
MOTION
Frames: 13
Frame Time: 0.00208333
50.9564 100.575 6.20218 0.242313 -3.29655 3.65453 -0.150376 -2.13294 -0.0588559 -0.31002 -0.24766 -0.112782 -0.308767 1.39741 -0.107618 -1.41027 24.3449 3.25549 -4.61886 -16.0597 1.58839 36.4491 -8.91997 -5.09999 46.4783 24.0529 32.0315 -9.54166e-015 4.77083e-015 1.27222e-014 -162.198 72.4474 160.554 8.34693e-006 4.93528e-006 -3.00722 8.02894 -4.95146 0.697702 -64.5748 -3.46645 2.637 -109.305 15.2474 -3.51956 -3.93836e-006 -4.58082e-006 1.31804e-006 -12.6759 3.57777 0.769796 7.79491e-006 -4.91729e-006 3 -8.02887 -4.95148 -0.697683 178.363 -3.02586 -0.122846 180 7.01534e-015 178.869 178.421 5.85132 179.735 -1.75102e-006 4.56899e-006 0.0770626 -18.9077 68.3019 19.7866 8.15174 25.4716 -3.16129 -177.009 -1.52584 2.15934 4.54188e-006 -4.6773e-006 -1.12917 -2.1204 -7.49409 0.172183 1.49002e-006 -3.53109e-006 -0.125763 19.4721 68.9135 -20.3357 -8.13649 25.2327 3.48774 
50.9501 100.569 6.20778 0.239885 -3.29417 3.65326 -0.151097 -2.13356 -0.0584941 -0.310743 -0.249312 -0.111754 -0.309534 1.39575 -0.106578 -1.43292 24.3533 3.27581 -4.62321 -16.0651 1.59939 36.4474 -8.91731 -5.09747 46.4658 24.0686 32.3643 4.77083e-015 0 -0 -162.136 72.9281 160.651 8.34693e-006 4.93528e-006 -3.00722 8.02894 -4.95146 0.697702 -64.5822 -3.46879 2.63887 -109.303 15.2373 -3.52524 -3.93836e-006 -4.58082e-006 1.31804e-006 -12.6764 3.56697 0.768343 7.79491e-006 -4.91729e-006 3 -8.02887 -4.95148 -0.697683 178.366 -3.02336 -0.126661 180 7.01534e-015 178.869 178.426 5.85556 179.735 -1.75102e-006 4.56899e-006 0.0770127 -18.9096 68.304 19.7887 8.15179 25.4723 -3.16012 -177.007 -1.52581 2.15827 4.54188e-006 -4.6773e-006 -1.1292 -2.12035 -7.49032 0.172484 1.49002e-006 -3.53109e-006 -0.125821 19.4712 68.9126 -20.3347 -8.13649 25.2327 3.48774 
50.9552 100.572 6.22418 0.237269 -3.29224 3.65168 -0.151906 -2.13401 -0.0580921 -0.311408 -0.250859 -0.110501 -0.310261 1.39421 -0.105313 -1.45446 24.363 3.29542 -4.6291 -16.0717 1.6096 36.4461 -8.9149 -5.09521 46.4578 24.0826 32.6674 -1.59028e-015 4.77083e-015 9.54166e-015 -162.063 73.4039 160.721 8.34693e-006 4.93528e-006 -3.00722 8.02894 -4.95146 0.697702 -64.5895 -3.47087 2.6406 -109.301 15.2272 -3.53184 -3.93836e-006 -4.58082e-006 1.31804e-006 -12.6762 3.55564 0.766853 7.79491e-006 -4.91729e-006 3 -8.02887 -4.95148 -0.697683 178.369 -3.02162 -0.130613 180 7.01534e-015 178.869 178.431 5.8593 179.734 -1.75102e-006 4.56899e-006 0.0769631 -18.9113 68.3058 19.7904 8.15184 25.4731 -3.15891 -177.004 -1.52644 2.15694 4.54188e-006 -4.6773e-006 -1.12923 -2.12036 -7.48641 0.172783 1.49002e-006 -3.53109e-006 -0.12588 19.4703 68.9117 -20.3338 -8.13649 25.2327 3.48774 
50.958 100.573 6.21871 0.234491 -3.2907 3.64987 -0.152786 -2.13431 -0.0576561 -0.312022 -0.252304 -0.109056 -0.31095 1.39276 -0.103856 -1.47514 24.3736 3.3144 -4.63617 -16.0794 1.61912 36.4452 -8.91273 -5.09317 46.4536 24.0957 32.9453 3.18055e-015 -6.36111e-015 3.18055e-015 -161.974 73.8777 160.764 8.34693e-006 4.93528e-006 -3.00721 8.02894 -4.95146 0.697702 -64.5968 -3.47272 2.6422 -109.298 15.2171 -3.53932 -3.93836e-006 -4.58082e-006 1.31804e-006 -12.6754 3.54391 0.765342 7.79491e-006 -4.91729e-006 3 -8.02887 -4.95148 -0.697683 178.373 -3.02054 -0.13467 180 7.01534e-015 178.869 178.436 5.86261 179.734 -1.75102e-006 4.56899e-006 0.0769139 -18.9127 68.3073 19.792 8.1519 25.4738 -3.15767 -177.001 -1.52761 2.1554 4.54188e-006 -4.6773e-006 -1.12927 -2.12042 -7.48242 0.17308 1.49002e-006 -3.53109e-006 -0.125937 19.4695 68.9108 -20.3329 -8.13649 25.2327 3.48774 
50.9595 100.572 6.20791 0.231574 -3.28949 3.64789 -0.153724 -2.13448 -0.057192 -0.312598 -0.25365 -0.107452 -0.311609 1.39141 -0.102241 -1.49522 24.3849 3.33282 -4.6441 -16.0876 1.62804 36.4445 -8.91077 -5.09134 46.4523 24.1082 33.2022 3.18055e-015 -3.18055e-015 3.18055e-015 -161.866 74.3519 160.778 8.34693e-006 4.93528e-006 -3.00721 8.02894 -4.95146 0.697702 -64.6043 -3.47434 2.64369 -109.295 15.2071 -3.54762 -3.93836e-006 -4.58082e-006 1.31804e-006 -12.674 3.53194 0.763827 7.79491e-006 -4.91729e-006 3 -8.02887 -4.95148 -0.697683 178.377 -3.02001 -0.138802 180 7.01534e-015 178.869 178.441 5.86554 179.734 -1.75102e-006 4.56899e-006 0.076865 -18.9139 68.3086 19.7933 8.15195 25.4746 -3.15641 -176.997 -1.52917 2.15369 4.54188e-006 -4.6773e-006 -1.1293 -2.12051 -7.47846 0.173373 1.49002e-006 -3.53109e-006 -0.125995 19.4687 68.9099 -20.332 -8.13649 25.2327 3.48774 
50.9523 100.579 6.21241 0.228546 -3.28856 3.64583 -0.154706 -2.13453 -0.0567061 -0.313144 -0.254899 -0.105723 -0.312241 1.39016 -0.100501 -1.51496 24.3966 3.35075 -4.65254 -16.0963 1.63644 36.4439 -8.90901 -5.08969 46.4532 24.1206 33.4427 3.18055e-015 0 -3.18055e-015 -161.736 74.8293 160.76 8.34693e-006 4.93528e-006 -3.00721 8.02894 -4.95146 0.697702 -64.612 -3.47574 2.64507 -109.292 15.197 -3.5567 -3.93836e-006 -4.58082e-006 1.31804e-006 -12.6722 3.51988 0.762324 7.79491e-006 -4.91729e-006 3 -8.02887 -4.95148 -0.697683 178.38 -3.01992 -0.142975 180 7.01534e-015 178.869 178.446 5.86816 179.733 -1.75102e-006 4.56899e-006 0.0768164 -18.915 68.3097 19.7945 8.152 25.4754 -3.15513 -176.994 -1.53101 2.15184 4.54188e-006 -4.6773e-006 -1.12933 -2.12063 -7.47459 0.173659 1.49002e-006 -3.53109e-006 -0.126052 19.4679 68.9091 -20.3311 -8.13649 25.2327 3.48774 
50.9512 100.577 6.19985 0.22543 -3.28784 3.64374 -0.155717 -2.13449 -0.0562044 -0.31367 -0.256055 -0.103901 -0.312851 1.38901 -0.0986697 -1.53461 24.4084 3.36827 -4.66117 -16.1051 1.64442 36.4432 -8.90742 -5.08821 46.4554 24.1332 33.671 -0 0 3.18055e-015 -161.579 75.3125 160.707 8.34693e-006 4.93528e-006 -3.00721 8.02894 -4.95146 0.697702 -64.62 -3.47694 2.64636 -109.288 15.1869 -3.5665 -3.93836e-006 -4.58082e-006 1.31804e-006 -12.67 3.50786 0.760848 7.79491e-006 -4.91729e-006 3 -8.02887 -4.95148 -0.697683 178.385 -3.02017 -0.147158 180 7.01534e-015 178.869 178.45 5.87054 179.732 -1.75102e-006 4.56899e-006 0.0767679 -18.9159 68.3106 19.7955 8.15206 25.4762 -3.15384 -176.99 -1.53297 2.1499 4.54188e-006 -4.6773e-006 -1.12937 -2.12076 -7.4709 0.173938 1.49002e-006 -3.53109e-006 -0.126109 19.4672 68.9083 -20.3303 -8.13649 25.2327 3.48774 
50.9609 100.576 6.20172 0.222253 -3.28727 3.6417 -0.156742 -2.13436 -0.055693 -0.314187 -0.25712 -0.102022 -0.313445 1.38794 -0.09678 -1.55443 24.42 3.38544 -4.66963 -16.1137 1.65205 36.4423 -8.90598 -5.08686 46.4581 24.1465 33.8915 -1.59028e-015 3.18055e-015 9.54166e-015 -161.39 75.8041 160.618 8.34693e-006 4.93528e-006 -3.00721 8.02894 -4.95146 0.697702 -64.6284 -3.47794 2.64758 -109.284 15.1767 -3.57697 -3.93836e-006 -4.58082e-006 1.31804e-006 -12.6675 3.49604 0.759414 7.79491e-006 -4.91729e-006 3 -8.02887 -4.95148 -0.697683 178.389 -3.02066 -0.151319 180 7.01534e-015 178.869 178.455 5.87272 179.732 -1.75102e-006 4.56899e-006 0.0767196 -18.9167 68.3114 19.7964 8.15211 25.477 -3.15254 -176.986 -1.53493 2.1479 4.54188e-006 -4.6773e-006 -1.1294 -2.12088 -7.46747 0.174209 1.49002e-006 -3.53109e-006 -0.126167 19.4665 68.9075 -20.3295 -8.13649 25.2327 3.48774 
50.9589 100.579 6.23221 0.219038 -3.28679 3.63979 -0.157767 -2.13418 -0.055178 -0.314705 -0.258097 -0.100117 -0.314028 1.38696 -0.0948655 -1.57467 24.4311 3.40234 -4.6776 -16.1217 1.65942 36.4411 -8.90468 -5.08563 46.4604 24.1606 34.1087 1.59028e-015 -3.18055e-015 3.18055e-015 -161.164 76.3067 160.488 8.34693e-006 4.93528e-006 -3.00721 8.02894 -4.95146 0.697702 -64.6372 -3.47876 2.64872 -109.278 15.1664 -3.58807 -3.93836e-006 -4.58082e-006 1.31804e-006 -12.6647 3.48457 0.75804 7.79491e-006 -4.91729e-006 3 -8.02887 -4.95148 -0.697683 178.393 -3.02127 -0.155425 180 7.01534e-015 178.869 178.46 5.8748 179.731 -1.75102e-006 4.56899e-006 0.0766713 -18.9174 68.3122 19.7972 8.15217 25.4778 -3.15125 -176.983 -1.53675 2.14588 4.54188e-006 -4.6773e-006 -1.12944 -2.12099 -7.46438 0.174469 1.49002e-006 -3.53109e-006 -0.126224 19.4658 68.9068 -20.3288 -8.13649 25.2327 3.48774 
50.9612 100.582 6.2256 0.215812 -3.28635 3.63806 -0.158776 -2.13396 -0.0546656 -0.315234 -0.258989 -0.0982206 -0.314604 1.38607 -0.0929594 -1.59559 24.4415 3.41904 -4.68474 -16.129 1.66663 36.4393 -8.90349 -5.08449 46.4613 24.1757 34.327 -0 0 6.36111e-015 -160.895 76.8229 160.314 8.34693e-006 4.93528e-006 -3.00721 8.02894 -4.95146 0.697702 -64.6465 -3.47941 2.64982 -109.272 15.156 -3.59975 -3.93836e-006 -4.58082e-006 1.31804e-006 -12.6618 3.47359 0.75674 7.79491e-006 -4.91729e-006 3 -8.02887 -4.95148 -0.697683 178.397 -3.02191 -0.159446 180 7.01534e-015 178.869 178.465 5.87681 179.731 -1.75102e-006 4.56899e-006 0.076623 -18.9181 68.3129 19.7979 8.15222 25.4786 -3.14997 -176.979 -1.5383 2.14388 4.54188e-006 -4.6773e-006 -1.12947 -2.12107 -7.46172 0.174717 1.49002e-006 -3.53109e-006 -0.126282 19.4652 68.9062 -20.3281 -8.13649 25.2327 3.48774 
50.9616 100.581 6.21398 0.212599 -3.28589 3.6366 -0.159757 -2.13372 -0.0541619 -0.315783 -0.259798 -0.0963662 -0.315179 1.38526 -0.0910952 -1.61743 24.4508 3.43562 -4.6907 -16.1352 1.67375 36.437 -8.9024 -5.08343 46.46 24.1922 34.5506 -3.18055e-015 7.95139e-015 6.36111e-015 -160.576 77.3552 160.088 8.34693e-006 4.93528e-006 -3.00721 8.02894 -4.95146 0.697702 -64.6564 -3.47989 2.65087 -109.265 15.1454 -3.61195 -3.93836e-006 -4.58082e-006 1.31804e-006 -12.6587 3.46325 0.755531 7.79491e-006 -4.91729e-006 3 -8.02887 -4.95148 -0.697683 178.401 -3.02247 -0.163349 180 7.01534e-015 178.869 178.469 5.87883 179.73 -1.75102e-006 4.56899e-006 0.0765748 -18.9188 68.3135 19.7987 8.15227 25.4794 -3.14871 -176.975 -1.53944 2.14194 4.54188e-006 -4.6773e-006 -1.12951 -2.12111 -7.45957 0.174952 1.49002e-006 -3.53109e-006 -0.126341 19.4646 68.9056 -20.3275 -8.13649 25.2327 3.48774 
50.9651 100.584 6.22037 0.209424 -3.28533 3.63547 -0.160694 -2.13347 -0.0536729 -0.316363 -0.260528 -0.0945871 -0.315757 1.38453 -0.0893062 -1.64047 24.4589 3.45213 -4.69516 -16.1399 1.68088 36.4339 -8.90138 -5.08241 46.4554 24.21 34.7841 -5.29669e-031 9.54166e-015 3.18055e-015 -160.199 77.9062 159.805 8.34693e-006 4.93528e-006 -3.00721 8.02894 -4.95146 0.697702 -64.667 -3.48023 2.6519 -109.257 15.1348 -3.62462 -3.93836e-006 -4.58082e-006 1.31804e-006 -12.6557 3.4537 0.754429 7.79491e-006 -4.91729e-006 3 -8.02887 -4.95148 -0.697683 178.404 -3.02284 -0.167102 180 7.01534e-015 178.869 178.474 5.88093 179.73 -1.75102e-006 4.56899e-006 0.0765264 -18.9195 68.3142 19.7995 8.15233 25.4802 -3.14746 -176.972 -1.54004 2.14009 4.54188e-006 -4.6773e-006 -1.12955 -2.12109 -7.45801 0.175172 1.49002e-006 -3.53109e-006 -0.1264 19.4641 68.9051 -20.3269 -8.13649 25.2327 3.48774 
50.9653 100.584 6.21128 0.206314 -3.28464 3.63475 -0.161572 -2.13324 -0.0532048 -0.316984 -0.261181 -0.0929168 -0.316344 1.38387 -0.0876257 -1.66494 24.4654 3.46867 -4.69778 -16.143 1.6881 36.4298 -8.90041 -5.08143 46.4466 24.2292 35.0318 -3.18055e-015 0 -6.36111e-015 -159.751 78.4784 159.455 8.34693e-006 4.93528e-006 -3.00721 8.02894 -4.95146 0.697702 -64.6784 -3.48043 2.65291 -109.247 15.1239 -3.63772 -3.93836e-006 -4.58082e-006 1.31804e-006 -12.6527 3.44508 0.753448 7.79491e-006 -4.91729e-006 3 -8.02887 -4.95148 -0.697683 178.408 -3.02291 -0.170672 180 7.01534e-015 178.869 178.478 5.88314 179.729 -1.75102e-006 4.56899e-006 0.0764778 -18.9203 68.315 19.8004 8.15238 25.481 -3.14625 -176.968 -1.53996 2.13839 4.54188e-006 -4.6773e-006 -1.12958 -2.121 -7.45713 0.175375 1.49002e-006 -3.53109e-006 -0.126459 19.4637 68.9046 -20.3264 -8.13649 25.2327 3.48774 
